<svg width="426" height="250" viewBox="0 0 426 250" fill="none" xmlns="http://www.w3.org/2000/svg">
<path opacity="0.08" d="M200.366 226.292C195.563 226.016 190.761 225.718 185.961 225.399C182.782 225.188 179.603 224.968 176.426 224.738C129.02 221.311 80.7644 215.88 34.4265 226.457C29.6459 227.548 24.402 229.176 21.9844 233.442C13.2694 248.818 51.3954 248.498 57.5243 248.771C155.823 253.159 253.426 244.46 351.687 243.493C365.59 243.357 379.723 243.889 393.621 244.191C402.064 244.374 413.049 245.478 421.317 243.569C426.54 242.364 426.098 238.399 422.084 236.394C414.757 232.734 403.785 232.45 395.498 232.133C360.881 230.805 326.673 229.055 292.085 229.002C261.495 228.955 230.906 228.051 200.366 226.292Z" fill="black"/>
<path d="M345.872 84.6343L343.306 82.6075L342.982 79.7322L342.345 79.4855L342.023 80.2628L341.08 77.9469L339.311 76.9805L336.931 78.1601L335.748 80.6604L337.182 82.9429L339.989 84.4438L343.384 87.371L345.872 84.6343Z" fill="#7B4F34"/>
<path d="M346.369 82.5166L371.134 103.518L383.899 102.298L388.713 114.708L366.486 117.653L361.456 115.122L340.342 87.1776L346.369 82.5166Z" fill="black"/>
<path d="M383.993 74.5342C384.379 73.7663 384.83 73.0019 385.511 72.4773C385.697 72.3341 385.899 72.2157 386.077 72.0694C392.29 66.9507 402.667 70.3021 402.569 80.5678C402.517 86.0905 398.034 91.138 392.839 92.0161C392.748 93.4604 392.186 95.126 392 96.2022C391.961 96.4248 391.912 96.6672 391.744 96.8118C391.594 96.9404 391.387 96.9589 391.194 96.9636C389.379 97.0108 387.567 96.3511 386.191 95.1427C386.09 95.0543 385.988 94.9583 385.937 94.8317C385.875 94.6773 385.896 94.501 385.92 94.3341C386.09 93.167 386.353 92.0135 386.694 90.8849C384.008 89.3772 382.458 86.2578 382.16 83.1569C381.875 80.1925 382.653 77.1932 383.993 74.5342Z" fill="#7B4F34"/>
<path d="M387.362 89.9209C387.278 90.1058 387.19 90.2962 387.039 90.4326C386.622 90.8105 385.962 90.6132 385.447 90.385C384.496 89.9638 383.547 89.4949 382.777 88.7957C382.006 88.0966 381.424 87.1323 381.389 86.0925C381.377 85.7167 381.446 85.3157 381.701 85.0386C381.955 84.7619 382.433 84.6722 382.708 84.9279C382.863 85.0712 382.925 85.2848 383.02 85.4727C383.278 85.984 383.792 86.3173 384.318 86.5446C384.899 86.796 385.587 86.9418 386.152 86.6553C386.862 86.295 387.098 85.4233 387.399 84.6855C387.912 83.4231 389.676 82.9093 389.61 84.6345C389.55 86.2122 388.014 88.483 387.362 89.9209Z" fill="#3B455A"/>
<path d="M359.116 228.599L356.583 230.963C354.951 232.487 355.325 235.25 357.371 236.143C358.576 236.67 360.275 236.589 362.624 234.981L368.018 228.847L367.143 226.863L361.503 226.011L359.116 228.599Z" fill="#3B455A"/>
<path d="M356.143 159.232L353.314 197.468L360.112 227.244L367.94 227.081L371.533 201.753C371.533 201.753 392.319 168.014 390.766 166.941C389.213 165.868 356.143 159.232 356.143 159.232Z" fill="#CCD2D9"/>
<path d="M411.512 230.425L410.405 233.708C409.691 235.823 411.332 238.079 413.557 237.894C414.868 237.785 416.324 236.908 417.629 234.379L419.466 226.419L417.754 225.088L412.386 227.014L411.512 230.425Z" fill="#3B455A"/>
<path d="M375.98 170.776L391.633 205.775L411.747 228.76L418.559 224.901L409.703 200.902C409.703 200.902 411.99 161.34 410.114 161.133C408.237 160.925 375.98 170.776 375.98 170.776Z" fill="#CCD2D9"/>
<path d="M408.236 102.037C414.719 109.926 415.55 121.285 415.403 131.776C415.273 141.073 414.617 150.367 413.441 159.592C413.023 162.872 412.407 166.415 410.088 168.663C408.56 170.143 406.508 170.834 404.512 171.411C389.606 175.72 373.717 176.051 358.738 172.362C357.072 171.952 355.332 171.443 354.135 170.161C353.241 169.202 352.749 167.91 352.339 166.633C348.256 153.889 350.415 139.815 353.883 126.79C356.381 117.408 359.708 107.912 366.098 100.838C377.774 87.9131 397.429 88.8872 408.236 102.037Z" fill="black"/>
<path d="M207.855 57.3756C208.757 56.3766 209.659 55.378 210.561 54.379C210.489 54.08 210.437 53.7827 210.404 53.4949C209.761 47.8787 217.401 31.3769 228.247 38.9294C238.094 45.7875 225.403 55.3235 218.849 57.7471C217.482 58.2528 215.837 58.6573 214.255 58.2889C213.408 59.5942 212.649 60.9565 211.991 62.3665C210.646 61.1367 209.301 59.9069 207.957 58.6775C207.746 58.4845 207.518 58.2533 207.528 57.9676C207.537 57.7377 207.7 57.5464 207.855 57.3756Z" fill="#EAC5B0"/>
<path d="M225.208 56.0714C223.125 56.8538 220.937 57.3574 218.722 57.5642C221.795 55.1539 224.533 52.3198 226.837 49.1666C227.013 48.926 227.219 48.663 227.514 48.6244C227.79 48.5884 228.046 48.7625 228.263 48.9367C232.14 52.0449 228.839 54.7074 225.208 56.0714Z" fill="#3B455A"/>
<path d="M212.597 49.8772C211.255 49.963 210.408 48.4526 210.119 47.1392C208.933 41.7434 211.738 35.7222 216.631 33.1584C220.726 31.0127 226.964 33.3038 223.335 37.7396C222.048 39.3121 219.143 40.1099 217.604 41.7177C215.405 44.0147 213.99 47.059 212.597 49.8772Z" fill="#3B455A"/>
<path d="M238.625 45.1067C238.804 45.6738 238.98 46.2559 239.174 46.8624C239.575 48.118 240.01 48.9103 241.366 49.4392C241.754 49.5906 245.063 50.0272 245.064 49.274C245.054 54.2661 239.472 54.7011 236.027 55.6306C233.704 56.2573 231.169 58.0572 228.669 57.2568C225.918 56.3766 226.423 53.8299 225.734 51.5612C225.126 49.5605 224.138 47.6667 223.441 45.694C222.285 42.4215 220.809 37.3543 224.862 35.4562C229.597 33.2398 233.819 36.4316 236.429 40.2596C237.544 41.8952 238.098 43.4351 238.625 45.1067Z" fill="#3B455A"/>
<path d="M249.849 146.301L255.126 148.903L256.671 145.794L250.82 142.91L249.849 146.301Z" fill="#EDD3B8"/>
<path d="M256.685 145.751L255.235 148.581L255.278 149.902L257.011 151.427L263.286 146.144C263.068 144.946 261.785 144.293 260.683 144.82L260.32 144.994L256.685 145.751Z" fill="#3B455A"/>
<path d="M239.649 157.611L244.135 160.414L245.94 157.901L240.967 154.794L239.649 157.611Z" fill="#EDD3B8"/>
<path d="M245.94 157.902L244.135 160.414L244.706 162.042L246.737 163.051L251.769 156.852L251.467 156.396C250.874 155.501 249.518 155.423 248.756 156.239L248.634 156.37L245.94 157.902Z" fill="#3B455A"/>
<path d="M197.581 125.706L208.032 136.312C213.345 141.704 219.242 146.486 225.615 150.572L242.026 161.092L246.316 154.495L235.284 146.078C229.602 141.743 224.818 136.343 221.199 130.18L203.873 100.674L188.966 110.191L197.581 125.706Z" fill="#3B455A"/>
<path d="M225.773 106.722L233.378 118.547C236.463 123.344 240.262 127.642 244.644 131.293L257.346 141.873L253.1 149.27L243.8 143.191C233.021 136.144 223.072 127.9 214.146 118.617L211.555 115.924L202.406 104.206L214.09 95.0972L225.773 106.722Z" fill="#3B455A"/>
<path d="M208.684 54.3445C205.189 51.069 197.447 56.4404 194.645 58.8914C191.778 61.3995 189.537 64.5686 187.814 67.9659C186.581 70.395 185.601 72.9524 184.894 75.5832C182.786 83.4308 183.588 90.2739 185.071 98.0598C185.787 101.819 186.554 105.57 187.439 109.293C188.052 111.877 188.815 115.127 189.997 117.437C195.992 115.305 201.802 111.725 207.527 108.92C210.346 107.539 213.398 106.12 216.497 106.623C218.373 106.928 220.201 107.933 222.069 107.587C223.408 107.339 224.548 106.422 225.883 106.157C228.623 105.613 231.781 107.84 234.06 106.225C233.748 105.01 232.549 104.221 231.346 103.868C230.142 103.516 228.864 103.48 227.658 103.135C223.932 102.067 221.688 98.3716 219.863 94.952C216.36 88.3865 212.956 81.0403 214.54 73.7691C214.957 71.8543 215.712 70.0193 216.022 68.0843C216.452 65.3926 215.933 62.577 214.661 60.174C213.195 57.4047 210.868 56.3915 208.684 54.3445Z" fill="black"/>
<path d="M240.101 90.5263L239.105 93.7276L244.203 95.9873L246.903 93.7606L246.492 90.7764L243.883 91.2749L244.07 90.6747L244.866 90.266L244.443 89.4741L240.101 90.5263Z" fill="#FEE7DE"/>
<path d="M208.896 63.0122L222.131 81.9856L241.468 89.5784L240.166 94.5358L215.729 89.4215L197.449 66.138L208.896 63.0122Z" fill="black"/>
<path d="M255.465 75.4194L257.317 75.9071L260.703 63.0596C261.028 61.9983 260.866 59.6408 257.959 58.1129L250.869 54.0361L249.916 55.6679L257.057 59.7729C259.335 60.9633 258.876 62.4878 258.871 62.5032L258.857 62.5508L255.465 75.4194Z" fill="#515151"/>
<path opacity="0.1" d="M260.664 63.2137L260.568 63.5796L258.739 63.0027L258.836 62.6372L260.664 63.2137Z" fill="black"/>
<path opacity="0.1" d="M258.911 62.0693L260.819 61.9951C260.826 62.1268 260.826 62.2533 260.819 62.3735L258.886 62.4489C258.9 62.3786 258.92 62.2461 258.911 62.0693Z" fill="black"/>
<path opacity="0.1" d="M258.787 61.4819L260.547 60.7686C260.595 60.8899 260.635 61.01 260.67 61.1284L258.887 61.8512C258.868 61.7376 258.837 61.6136 258.787 61.4819Z" fill="black"/>
<path opacity="0.1" d="M258.482 60.9227L259.891 59.6504C259.973 59.7529 260.049 59.8559 260.118 59.9592L258.686 61.253C258.631 61.1457 258.565 61.035 258.482 60.9227Z" fill="black"/>
<path opacity="0.1" d="M259.206 58.9468L258.292 60.6875C258.208 60.5948 258.112 60.5017 258.006 60.4086L258.902 58.7031C259.009 58.7833 259.11 58.8644 259.206 58.9468Z" fill="black"/>
<path d="M237.084 109.876L244.381 73.3525L267.242 79.3772L255.423 114.709C255.423 114.709 246.392 115.098 237.084 109.876Z" fill="#515151"/>
<path d="M268.496 77.0874L268.91 75.5183L244.832 69.1724L244.418 70.7415L243.479 70.494L242.833 72.945L268.79 79.7859L269.436 77.3349L268.496 77.0874Z" fill="#BEF264"/>
<path opacity="0.18" d="M267.241 79.3781C267.241 79.3781 249.359 75.4391 243.765 76.4351L244.381 73.3535L267.241 79.3781Z" fill="black"/>
<path opacity="0.18" d="M255.422 114.709C255.422 114.709 246.391 115.098 237.083 109.876L242.624 82.1455C243.444 108.687 255.422 114.709 255.422 114.709Z" fill="black"/>
<path d="M238.954 98.4429L241.986 83.0298L264.556 88.9781L259.523 103.864L238.954 98.4429Z" fill="#BEF264"/>
<path opacity="0.06" d="M241.986 83.0298C241.986 83.0298 241.594 93.0981 246.636 100.468L238.954 98.4429L241.986 83.0298Z" fill="black"/>
<path opacity="0.18" d="M259.089 103.75L239.347 98.5469L239.021 100.179L259.089 103.75Z" fill="black"/>
<path opacity="0.18" d="M244.832 69.1724L244.418 70.7415L255.781 73.736C255.781 73.736 246.219 71.182 244.832 69.1724Z" fill="black"/>
<path d="M250.728 75.6999L250.85 79.0504L256.408 79.494L258.218 76.4986L256.842 73.819L254.545 75.1534L254.523 74.5254L255.139 73.876L254.477 73.269L250.728 75.6999Z" fill="#EAC5B0"/>
<path d="M212.172 60.0771L230.944 73.5951L251.704 74.3539L252.118 79.4627L227.367 82.7318L202.406 66.8181L212.172 60.0771Z" fill="black"/>
<path d="M127.386 95.7208C117.879 94.8912 109.994 96.9845 100.98 108.323C116.036 104.063 132.677 108.741 145.672 116.953C158.667 125.166 172.732 133.522 183.129 144.443C193.526 155.364 201.164 167.636 214.94 175.572C237.612 188.631 267.179 186.882 291.531 176.663C302.516 172.054 310.04 163.048 322.024 160.206C329.126 158.521 336.697 159.023 343.625 161.121C351.156 163.402 357.919 167.431 365.078 170.486C371.62 173.278 378.309 175.782 385.116 177.99C386.213 178.346 388.334 179.471 389.314 178.87C390.126 178.373 390.536 175.382 390.768 174.525C390.986 173.718 392.866 165.372 392.189 165.225C376.942 161.926 364.685 151.365 349.849 146.738C335.839 142.368 319.852 143.741 306.956 150.422C301.213 153.397 296.118 157.334 290.464 160.45C267.267 173.236 234.586 169.546 216.172 151.292C211.905 147.062 208.419 142.223 204.574 137.66C183.53 112.677 161.509 98.6982 127.386 95.7208Z" fill="#BEF264"/>
<path d="M12.9652 151.209L18.4639 190.767L16.5114 219.343L20.516 220.74L24.1008 194.334L31.7507 146.081L12.9652 151.209Z" fill="#EAC5B0"/>
<path d="M20.5075 221.545L20.9497 224.506L19.9451 230.133L16.6388 229.82L16.0164 221.485L16.5032 220.148L20.5075 221.545Z" fill="#3B455A"/>
<path d="M45.3665 150.032L43.5988 183.583L36.1217 230.487L32.069 230.432L33.8706 186.944L28.6142 146.853L45.3665 150.032Z" fill="#EAC5B0"/>
<path d="M36.0548 229.685L41.2344 233.482L40.5884 236.32L31.1047 234.059L31.8759 229.96L36.0548 229.685Z" fill="#3B455A"/>
<path d="M46.2599 155.061L46.0909 194.005L41.3257 220.264L30.4685 218.506L30.7847 188.159L26.5329 156.115L29.6475 149.775L45.3506 151.557L46.2599 155.061Z" fill="#3B455A"/>
<path d="M26.9962 188.732L23.6349 216.352L14.1937 214.883L12.7516 191.114L9.44391 159.359L12.9652 153.552L29.394 155.08L26.9962 188.732Z" fill="#3B455A"/>
<path d="M8.80735 83.3902C9.53056 76.5347 18.2473 72.3289 21.9684 79.3165C23.0867 81.4162 23.9785 83.7072 24.0287 86.0892C24.0789 88.4716 23.1716 90.9625 21.2731 92.351C21.2624 92.3592 21.2508 92.3652 21.2401 92.3729C21.4485 92.9494 21.657 93.5259 21.8651 94.1029C21.9101 94.2268 21.9547 94.3641 21.9071 94.4863C21.8526 94.6253 21.6999 94.6918 21.5618 94.7441C20.8875 94.9998 20.2132 95.255 19.5384 95.5107C19.2043 95.6372 18.8551 95.7659 18.4995 95.729C17.721 95.6484 17.2294 94.8256 17.0321 94.0557C16.9849 93.8712 16.9467 93.6834 16.9094 93.4946C12.4792 92.9434 8.33464 87.8715 8.80735 83.3902Z" fill="#EAC5B0"/>
<path d="M22.1761 81.3636C23.4698 82.8769 23.7229 84.9324 23.7491 86.8567C23.7748 88.7385 24.2548 90.5084 24.1073 92.3983C24.3466 92.6536 24.755 92.3975 24.996 92.1461C26.4086 90.6726 27.801 89.179 29.1727 87.6661C29.3109 87.5139 29.4524 87.3556 29.5163 87.1587C29.5978 86.9095 29.5438 86.6371 29.4854 86.381C28.3273 81.3176 25.7523 77.8848 22.2645 74.2854C20.571 72.5374 16.517 70.9405 14.7651 73.6055C14.3662 74.2125 14.3044 74.9812 14.289 75.7121C14.28 76.1488 14.2851 76.5983 14.4464 77.0041C15.0885 78.6221 16.6439 78.2884 17.9557 78.6363C19.5728 79.0657 21.0844 80.0861 22.1761 81.3636Z" fill="#3B455A"/>
<path d="M11.0221 86.5294C11.2485 88.005 11.8504 89.6273 12.5067 90.9544C12.734 91.4143 13.8321 92.3953 13.9115 92.7183C14.1405 93.653 12.5337 96.1782 12.1532 97.0841C8.84555 95.8603 5.53834 94.637 2.2307 93.4132C1.97718 93.3192 1.71123 93.2167 1.54008 93.0053C1.38437 92.8131 1.33033 92.5587 1.284 92.3146C0.372477 87.5177 0.948131 82.9918 2.11659 78.3463C3.2842 73.7029 6.86079 69.5257 11.7616 69.0839C15.7212 68.7266 18.9088 71.1986 18.0955 75.4598C17.4816 78.6766 13.7854 79.9059 12.04 82.3076C10.944 83.8145 10.7724 85.1709 11.0221 86.5294Z" fill="#3B455A"/>
<path d="M13.1055 96.2614C13.03 96.3004 12.9549 96.3395 12.8807 96.3793C9.32082 98.2822 7.16576 104.959 5.94196 108.876C2.78317 118.989 2.11529 129.174 3.07185 139.75C3.58702 145.445 4.35785 151.115 5.24535 156.764C5.49071 158.324 8.63363 172.168 7.95418 172.6C14.9229 168.166 22.0397 163.906 29.6677 160.882C37.2957 157.86 45.5359 160.535 53.707 161.251C49.0885 143.763 43.3058 121.675 36.1256 105.143C35.2668 103.166 34.5916 101.026 33.4545 99.1954C32.1449 97.0875 30.5144 96.6329 28.3937 95.5682C27.6671 95.2036 26.9353 94.8368 26.1593 94.6185C22.0684 93.4693 16.8639 94.3268 13.1055 96.2614Z" fill="black"/>
<path d="M55.436 77.9268L56.2965 72.5241L54.0072 72.0947L52.5998 75.6778L51.6201 74.9713L51.4459 79.6743L53.7601 80.4425L55.436 77.9268Z" fill="#EBCEB1"/>
<path d="M16.0515 111.954C16.0798 111.519 16.1776 111.061 16.3531 110.584C17.0823 108.607 18.723 107.059 20.5632 106.021C23.4767 104.378 26.9267 103.641 30.0062 102.337C33.5287 100.847 37.0513 99.3567 40.5743 97.8665L50.9712 78.0713L55.4812 79.8317L47.4945 106.117C42.7224 107.868 38.0529 109.561 33.4245 111.597C29.2757 113.423 25.1818 116.242 20.4929 116.101C17.8446 116.021 15.8967 114.344 16.0515 111.954Z" fill="black"/>
<path d="M173.49 193.71C197.817 169.383 197.817 129.94 173.49 105.613C149.162 81.2855 109.72 81.2855 85.3923 105.613C61.0649 129.94 61.0649 169.383 85.3923 193.71C109.72 218.038 149.162 218.038 173.49 193.71Z" fill="#BEF264"/>
<path d="M129.444 199.538C156.989 199.538 179.319 177.208 179.319 149.663C179.319 122.117 156.989 99.7876 129.444 99.7876C101.898 99.7876 79.5685 122.117 79.5685 149.663C79.5685 177.208 101.898 199.538 129.444 199.538Z" fill="#3B455A"/>
<path d="M131.919 62.0112C83.5937 62.0112 44.4185 100.524 44.4185 148.031C44.4185 195.539 83.5937 234.052 131.919 234.052C180.244 234.052 219.419 195.539 219.419 148.031C219.419 100.524 180.244 62.0112 131.919 62.0112ZM168.761 80.1636C174.716 82.679 180.223 86.1779 185.046 90.521C191.189 96.0537 196.071 102.82 199.375 110.351C200.274 112.399 199.252 114.766 197.15 115.496L151.51 131.365C149.59 132.032 147.723 130.191 148.366 128.263L163.646 82.4563C164.349 80.3493 166.701 79.2932 168.761 80.1636ZM139.199 155.898C140.574 154.584 142.754 154.633 144.067 156.009C145.381 157.384 145.331 159.564 143.956 160.877C142.581 162.191 140.401 162.141 139.088 160.766C137.774 159.391 137.823 157.211 139.199 155.898ZM139.438 135.995C140.791 134.658 142.971 134.67 144.308 136.022C145.646 137.374 145.634 139.554 144.282 140.892C142.93 142.229 140.749 142.217 139.412 140.865C138.074 139.513 138.086 137.333 139.438 135.995ZM142.452 148.625C142.515 146.724 144.107 145.234 146.008 145.296C147.909 145.359 149.399 146.951 149.336 148.852C149.273 150.753 147.681 152.243 145.781 152.18C143.879 152.118 142.389 150.526 142.452 148.625ZM131.919 137.738C130.017 137.738 128.475 136.196 128.475 134.294C128.475 132.392 130.017 130.851 131.919 130.851C133.821 130.851 135.363 132.392 135.363 134.294C135.363 136.196 133.821 137.738 131.919 137.738ZM135.363 162.26C135.363 164.162 133.821 165.703 131.919 165.703C130.017 165.703 128.475 164.162 128.475 162.26C128.475 160.358 130.017 158.816 131.919 158.816C133.821 158.816 135.363 160.358 135.363 162.26ZM119.556 155.662C120.908 154.324 123.088 154.336 124.426 155.688C125.763 157.04 125.751 159.221 124.399 160.558C123.047 161.896 120.867 161.884 119.529 160.531C118.192 159.179 118.204 156.999 119.556 155.662ZM117.83 151.257C115.929 151.195 114.439 149.603 114.502 147.702C114.564 145.801 116.156 144.311 118.057 144.373C119.958 144.436 121.448 146.028 121.386 147.929C121.323 149.83 119.731 151.32 117.83 151.257ZM124.639 140.656C123.264 141.97 121.084 141.921 119.77 140.545C118.456 139.17 118.506 136.99 119.881 135.677C121.257 134.363 123.436 134.413 124.75 135.788C126.064 137.163 126.014 139.343 124.639 140.656ZM108.162 73.5745C114.902 71.1874 122.047 69.8156 129.297 69.5256C138.534 69.1563 147.716 70.5517 156.224 73.5985C158.539 74.4272 159.557 76.8311 158.436 78.827L134.103 122.167C133.079 123.991 130.147 123.99 129.166 122.165L105.835 78.7987C104.762 76.8032 105.831 74.4002 108.162 73.5745ZM63.3168 106.874C67.2927 99.505 72.7966 93.0042 79.4711 87.8255C84.7103 83.7599 90.5698 80.5874 96.7981 78.4324C98.9528 77.6868 101.239 78.8982 101.771 81.0631L113.326 128.123C113.813 130.104 111.771 131.839 109.887 131.045L65.1291 112.193C63.0676 111.324 62.2354 108.878 63.3168 106.874ZM58.3062 169.537C55.2375 161.037 53.8176 151.859 54.1629 142.621C54.434 135.37 55.7874 128.222 58.1569 121.475C58.9766 119.142 61.377 118.067 63.3747 119.135L106.802 142.352C108.629 143.329 108.638 146.261 106.817 147.289L63.5407 171.736C61.5478 172.862 59.1409 171.85 58.3062 169.537ZM91.1081 215.029C83.6598 211.205 77.0479 205.835 71.7337 199.268C67.5621 194.113 64.2699 188.319 61.9883 182.137C61.199 179.998 62.3632 177.687 64.517 177.112L111.331 164.596C113.301 164.069 115.077 166.076 114.323 167.975L96.3885 213.109C95.5628 215.188 93.1345 216.07 91.1081 215.029ZM155.559 222.826C147.067 225.917 137.892 227.361 128.653 227.04C121.401 226.787 114.25 225.453 107.497 223.101C105.162 222.288 104.08 219.89 105.143 217.889L128.247 174.402C129.219 172.572 132.15 172.555 133.184 174.373L157.744 217.586C158.875 219.577 157.869 221.986 155.559 222.826ZM202.027 184.886C199.195 190.955 195.381 196.561 190.739 201.464C184.826 207.709 177.714 212.659 169.896 215.994C167.769 216.901 165.406 215.844 164.758 213.693L150.679 166.991C150.086 165.025 152.046 163.128 153.979 163.795L199.925 179.65C202.039 180.379 203.007 182.787 202.027 184.886ZM202.035 171.736L158.758 147.289C156.937 146.26 156.947 143.329 158.774 142.352L202.201 119.135C204.199 118.067 206.599 119.142 207.419 121.475C209.788 128.221 211.142 135.369 211.413 142.621C211.758 151.858 210.339 161.036 207.269 169.537C206.435 171.85 204.028 172.862 202.035 171.736Z" fill="#CCD2D9"/>
<path d="M64.5866 118.407L69.613 116.246L68.7521 114.082L64.9718 114.807L65.0451 113.602L60.9769 115.968L61.5646 118.335L64.5866 118.407Z" fill="#EBCEB1"/>
<path d="M14.778 103.303C15.1606 103.095 15.6003 102.932 16.0974 102.826C18.1585 102.385 20.3436 102.945 22.2044 103.946C25.15 105.53 27.6169 108.052 30.3643 109.959C33.5064 112.139 36.6489 114.32 39.791 116.501L62.0784 114.71L63.0007 119.462L36.5159 126.759C32.4855 123.661 28.5593 120.619 24.3642 117.796C20.6036 115.265 16.0327 113.312 13.6464 109.273C12.2982 106.993 12.6753 104.45 14.778 103.303Z" fill="black"/>
<path d="M294.775 25.2527L288.943 72.8618L360.475 81.6249L366.307 34.0158L294.775 25.2527Z" fill="black"/>
<path d="M295.8 16.8836L294.775 25.2539L366.526 34.0439L367.552 25.6736L295.8 16.8836Z" fill="#5A595C"/>
<path d="M358.021 33.0105L366.527 34.0524L367.552 25.6823L367.417 25.6655L358.021 33.0105Z" fill="#F7F7F7"/>
<path d="M295.802 16.8916L294.934 23.9753L302.886 17.7594L295.802 16.8916Z" fill="#E5E5E6"/>
<path d="M315.603 19.3179L306.207 26.6624L319.397 28.2782L328.792 20.9337L315.603 19.3179Z" fill="#F7F7F7"/>
<path d="M341.51 22.4917L332.114 29.8362L345.303 31.4525L354.699 24.1076L341.51 22.4917Z" fill="#F7F7F7"/>
<path d="M302.886 17.7593L294.934 23.9752L294.776 25.2616L306.207 26.6622L315.603 19.3177L302.886 17.7593Z" fill="black"/>
<path d="M328.792 20.9331L319.396 28.2776L332.114 29.8356L341.51 22.4911L328.792 20.9331Z" fill="black"/>
<path d="M354.699 24.1069L345.303 31.4519L358.021 33.0098L367.417 25.6649L354.699 24.1069Z" fill="black"/>
<path d="M304.358 15.877L295.849 16.8859L294.856 8.51148L294.991 8.49561L304.358 15.877Z" fill="#E5E5E6"/>
<path d="M366.639 0L367.48 7.08714L359.553 0.840316L366.639 0Z" fill="#F7F7F7"/>
<path d="M346.829 2.34912L356.196 9.73052L343 11.2949L333.633 3.91351L346.829 2.34912Z" fill="#F7F7F7"/>
<path d="M320.91 5.42188L330.277 12.8033L317.082 14.3677L307.714 6.98626L320.91 5.42188Z" fill="#F7F7F7"/>
<path d="M359.553 0.840332L367.48 7.08715L367.633 8.37443L356.196 9.73035L346.829 2.34895L359.553 0.840332Z" fill="black"/>
<path d="M333.633 3.91357L343 11.295L330.277 12.8036L320.91 5.4222L333.633 3.91357Z" fill="black"/>
<path d="M307.714 6.98682L317.082 14.3682L304.358 15.8768L294.991 8.49544L307.714 6.98682Z" fill="black"/>
<path d="M294.776 25.2618L294.856 8.5241L303.365 7.51221L312.067 27.3804L294.776 25.2618Z" fill="black"/>
<path opacity="0.3" d="M303.365 7.51221L309.68 15.2458L306.857 15.4851L303.365 7.51221Z" fill="#262425"/>
<path opacity="0.3" d="M308.135 18.4023L314.578 27.6879L312.067 27.3803L308.135 18.4023Z" fill="#262425"/>
<path d="M301.181 11.9316C301.122 12.5591 300.565 13.0198 299.937 12.9602C299.309 12.9006 298.849 12.3434 298.908 11.7158C298.967 11.0883 299.525 10.6276 300.152 10.6868C300.78 10.7468 301.241 11.304 301.181 11.9316Z" fill="#F7F7F7"/>
<path d="M299.088 21.9106C299.029 22.5386 298.471 22.9989 297.844 22.9397C297.216 22.8801 296.756 22.3229 296.815 21.6953C296.874 21.0678 297.432 20.6071 298.059 20.6663C298.687 20.7259 299.148 21.2831 299.088 21.9106Z" fill="#F7F7F7"/>
<path d="M307.47 22.7046C307.411 23.3326 306.854 23.7928 306.226 23.7336C305.598 23.674 305.138 23.1172 305.197 22.4893C305.257 21.8617 305.814 21.401 306.441 21.4602C307.069 21.5198 307.53 22.077 307.47 22.7046Z" fill="#F7F7F7"/>
<path d="M293.453 62.9495L293.394 63.4341L358.432 71.4018L358.492 70.9172L293.453 62.9495Z" fill="#F7F7F7"/>
<path d="M313.815 66.2638L312.847 74.1641L313.382 74.2295L314.349 66.3292L313.815 66.2638Z" fill="#F7F7F7"/>
<path d="M337.395 69.1524L336.428 77.0527L336.962 77.1182L337.93 69.2179L337.395 69.1524Z" fill="#F7F7F7"/>
<path d="M297.176 32.556L297.11 33.0903L362.149 41.058L362.215 40.5237L297.176 32.556Z" fill="#F7F7F7"/>
<path d="M93.864 31.6874C94.2956 30.9586 94.5452 30.1093 94.5499 29.2012C94.5589 27.4331 93.6371 25.8781 92.2448 24.9984C92.2954 24.7569 92.3224 24.5068 92.3237 24.2503C92.334 22.1926 90.6744 20.5163 88.6167 20.506C88.4198 20.5051 88.2268 20.5197 88.038 20.548C87.1462 18.7434 85.2923 17.4973 83.1424 17.4866C81.9285 17.4806 80.8055 17.8696 79.8935 18.5319C79.9283 18.299 79.948 18.0609 79.9493 17.8181C79.963 15.09 77.7625 12.8672 75.0344 12.8535C73.0839 12.8436 71.3926 13.9657 70.5814 15.603C69.5421 14.5637 68.1119 13.9186 66.5304 13.9104C65.377 13.9048 64.3011 14.2385 63.3956 14.8185C62.503 13.5874 61.0565 12.7831 59.4197 12.775C57.4529 12.7651 55.7491 13.9061 54.9461 15.5657C54.5957 15.4542 54.2225 15.3933 53.8352 15.3911C51.7775 15.3808 50.1011 17.0405 50.0908 19.0981C50.0895 19.3933 50.1234 19.6798 50.1865 19.9552C49.3972 19.4108 48.442 19.0896 47.4108 19.0844C44.6826 19.0707 42.4598 21.2712 42.4461 23.9993C42.4426 24.7187 42.5941 25.402 42.8673 26.0201C40.9319 26.6811 39.5356 28.5093 39.5245 30.6695C39.5232 30.9226 39.5412 31.1714 39.5768 31.4146L93.864 31.6874Z" fill="white"/>
<path opacity="0.12" d="M93.7002 31.9455C94.2317 31.1627 94.5448 30.2186 94.55 29.2011C94.5577 27.6384 93.8383 26.2422 92.7098 25.3315C79.0163 30.729 48.5278 30.714 48.5278 30.714L48.4042 31.7169L93.7002 31.9455Z" fill="black"/>
<path d="M49.1622 32.7119L51.7806 82.5569C53.0871 82.7504 54.5173 82.9413 56.0495 83.1158L54.5674 32.7394L49.1622 32.7119Z" fill="#BEF264"/>
<path d="M69.202 32.813L68.9442 83.8904C70.4005 83.8951 71.8847 83.8702 73.3869 83.8084L75.4008 32.8439L69.202 32.813Z" fill="#BEF264"/>
<path d="M40.0002 32.666L43.4545 81.002C43.4545 81.002 44.9747 81.3794 47.5862 81.8612L45.0035 32.6913L40.0002 32.666Z" fill="#BEF264"/>
<path d="M58.7219 32.7607L60.215 83.5198C61.6833 83.6374 63.2138 83.733 64.7928 83.7978L65.0502 32.7925L58.7219 32.7607Z" fill="#BEF264"/>
<path d="M94.2518 32.9399L89.2485 32.9146L86.1541 82.3117C87.6395 82.0072 89.116 81.652 90.5744 81.2398L94.2518 32.9399Z" fill="#BEF264"/>
<path d="M79.555 32.8657L77.5522 83.5442C79.0124 83.4168 80.4803 83.2508 81.9481 83.0406L85.0898 32.8936L79.555 32.8657Z" fill="#BEF264"/>
<path d="M65.0501 32.7925L64.7927 83.7978C66.1444 83.8535 67.5312 83.8862 68.9441 83.8909L69.2019 32.8135L65.0501 32.7925Z" fill="#F7F7F7"/>
<path d="M45.0034 32.6909L47.5861 81.8608C48.7722 82.0795 50.1839 82.3202 51.7804 82.5565L49.1621 32.7115L45.0034 32.6909Z" fill="#F7F7F7"/>
<path d="M54.5673 32.7393L56.0493 83.1157C57.3671 83.2654 58.7603 83.4031 60.2149 83.5194L58.7217 32.7603L54.5673 32.7393Z" fill="#F7F7F7"/>
<path d="M85.0898 32.8931L81.9481 83.04C83.3529 82.8393 84.7573 82.5978 86.154 82.3113L89.2484 32.9141L85.0898 32.8931Z" fill="#F7F7F7"/>
<path d="M75.4006 32.8442L73.3867 83.8088C74.7628 83.7526 76.1539 83.6655 77.5523 83.5437L79.555 32.8653L75.4006 32.8442Z" fill="#F7F7F7"/>
<path d="M95.3534 31.0434L38.9266 30.7612L38.9171 32.6585L95.3439 32.9406L95.3534 31.0434Z" fill="#F7F7F7"/>
<path opacity="0.12" d="M94.2518 32.9401L94.0794 35.2049L58.7218 32.7607L94.2518 32.9401Z" fill="black"/>
<path opacity="0.12" d="M87.0266 68.3882C85.6896 69.6288 84.2204 70.7475 82.6556 71.7564C81.153 72.7254 79.562 73.5927 77.9153 74.3696C76.5396 75.0186 75.1249 75.6049 73.6905 76.1334C72.1347 76.7065 70.5553 77.2126 68.9759 77.6592C67.5844 78.0525 66.1929 78.4 64.8185 78.7067C63.2142 79.0649 61.6331 79.3673 60.1005 79.6229C58.6721 79.861 57.2861 80.0587 55.9641 80.2226C54.4409 80.4113 53.0026 80.555 51.6806 80.664C50.1179 80.7931 48.7187 80.8746 47.5365 80.9252L47.5858 81.8612C48.7719 82.08 50.1836 82.3206 51.7801 82.5569C53.0867 82.7504 54.5168 82.9413 56.049 83.1159C57.3668 83.2656 58.76 83.4033 60.2146 83.5195C61.6829 83.637 63.2134 83.7327 64.7924 83.7975C66.144 83.8532 67.5308 83.8858 68.9437 83.8906C70.4 83.8953 71.8842 83.8704 73.386 83.8086C74.762 83.7524 76.1531 83.6654 77.5519 83.5435C79.0121 83.4161 80.48 83.2501 81.9478 83.0399C83.3527 82.8392 84.757 82.5977 86.1537 82.3111C87.6392 82.0066 89.1156 81.6514 90.574 81.2392L92.0458 61.9072C90.7572 64.3716 89.0418 66.518 87.0266 68.3882Z" fill="black"/>
<path d="M374.214 150.828L372.374 153.53L369.528 154.058L369.328 154.71L370.125 154.976L367.882 156.082L367.043 157.914L368.389 160.205L370.967 161.207L373.142 159.616L374.44 156.709L377.12 153.115L374.214 150.828Z" fill="#7B4F34"/>
<path d="M372.066 150.482L391.26 124.291L389.138 111.645L401.176 105.964L405.689 127.926L403.52 133.124L377.141 156.164L372.066 150.482Z" fill="black"/>
<path d="M252.724 48.5884C252.386 48.4391 251.975 48.5481 251.689 48.7818C251.403 49.0156 251.223 49.3536 251.087 49.6972C250.826 50.3552 250.701 51.0669 250.722 51.7742L250.857 51.996C251.018 51.338 251.59 50.8794 252.063 50.3947C252.536 49.9096 252.959 49.2241 252.724 48.5884Z" fill="#474EBB"/>
<path d="M256.286 51.148C255.776 50.9683 255.215 51.0005 254.682 51.0918C253.661 51.2668 252.675 51.652 251.805 52.2165L251.631 52.5546C252.577 52.2547 253.585 52.621 254.553 52.8437C255.52 53.0663 256.699 53.0732 257.316 52.2955C257.245 51.7584 256.796 51.3278 256.286 51.148Z" fill="#474EBB"/>
<path d="M247.422 51.0453C247.189 50.8086 246.964 50.4963 247.024 50.2149C247.055 50.0695 247.161 49.9597 247.29 49.8932C247.626 49.7199 248.101 49.8305 248.472 50.0781C248.842 50.3251 249.126 50.688 249.375 51.0543C249.604 51.3898 249.832 51.7437 250.004 52.1044C250.253 52.6277 249.815 52.4227 249.422 52.294C248.689 52.0538 247.985 51.6184 247.422 51.0453Z" fill="#474EBB"/>
</svg>
