<svg width="30" height="30" viewBox="0 0 30 30" fill="none" xmlns="http://www.w3.org/2000/svg">
<path d="M3.75 13.7499L25.25 7.49994L24.25 4.24994C23.875 2.99994 22.5 2.24994 21.125 2.62494L4.25 7.62494C3 7.99994 2.25 9.37494 2.625 10.7499L3.75 13.7499ZM3.75 13.7499L26.25 13.7499V23.7499C26.25 24.413 25.9866 25.0489 25.5178 25.5177C25.0489 25.9866 24.413 26.2499 23.75 26.2499H6.25C5.58696 26.2499 4.95108 25.9866 4.48224 25.5177C4.01339 25.0489 3.75 24.413 3.75 23.7499L3.75 13.7499ZM7.75 6.62494L11.625 11.4999M15.5 4.24994L19.375 9.24994" stroke="#BEF264" stroke-width="1.5" stroke-linecap="round" stroke-linejoin="round"/>
</svg>
